<svg width="104" height="18" viewBox="0 0 104 18" fill="none" xmlns="http://www.w3.org/2000/svg">
<path d="M4.39 4.774V8.844H11.518V11.704H4.39V17.314H0.826004V1.914H12.464V4.774H4.39Z" fill="white"/>
<path d="M19.0865 5.302C20.9199 5.302 22.3279 5.742 23.3105 6.622C24.2932 7.48733 24.7845 8.8 24.7845 10.56V17.314H21.5725V15.84C20.9272 16.94 19.7245 17.49 17.9645 17.49C17.0552 17.49 16.2632 17.336 15.5885 17.028C14.9285 16.72 14.4225 16.2947 14.0705 15.752C13.7185 15.2093 13.5425 14.5933 13.5425 13.904C13.5425 12.804 13.9532 11.9387 14.7745 11.308C15.6105 10.6773 16.8939 10.362 18.6245 10.362H21.3525C21.3525 9.614 21.1252 9.042 20.6705 8.646C20.2159 8.23533 19.5339 8.03 18.6245 8.03C17.9939 8.03 17.3705 8.13267 16.7545 8.338C16.1532 8.52867 15.6399 8.79267 15.2145 9.13L13.9825 6.732C14.6279 6.27733 15.3979 5.92533 16.2925 5.676C17.2019 5.42667 18.1332 5.302 19.0865 5.302ZM18.8225 15.18C19.4092 15.18 19.9299 15.048 20.3845 14.784C20.8392 14.5053 21.1619 14.102 21.3525 13.574V12.364H18.9985C17.5905 12.364 16.8865 12.826 16.8865 13.75C16.8865 14.19 17.0552 14.542 17.3925 14.806C17.7445 15.0553 18.2212 15.18 18.8225 15.18Z" fill="white"/>
<path d="M27.8906 5.478H31.3226V17.314H27.8906V5.478ZM29.6066 3.828C28.976 3.828 28.4626 3.64467 28.0666 3.278C27.6706 2.91133 27.4726 2.45667 27.4726 1.914C27.4726 1.37133 27.6706 0.916667 28.0666 0.550001C28.4626 0.183334 28.976 0 29.6066 0C30.2373 0 30.7506 0.176 31.1466 0.528001C31.5426 0.880001 31.7406 1.32 31.7406 1.848C31.7406 2.42 31.5426 2.89667 31.1466 3.278C30.7506 3.64467 30.2373 3.828 29.6066 3.828Z" fill="white"/>
<path d="M46.5638 0.99V17.314H43.2858V15.95C42.4352 16.9767 41.2032 17.49 39.5898 17.49C38.4752 17.49 37.4632 17.2407 36.5538 16.742C35.6592 16.2433 34.9552 15.532 34.4418 14.608C33.9285 13.684 33.6718 12.6133 33.6718 11.396C33.6718 10.1787 33.9285 9.108 34.4418 8.184C34.9552 7.26 35.6592 6.54867 36.5538 6.05C37.4632 5.55133 38.4752 5.302 39.5898 5.302C41.1005 5.302 42.2812 5.77867 43.1318 6.732V0.99H46.5638ZM40.1838 14.674C41.0492 14.674 41.7678 14.3807 42.3398 13.794C42.9118 13.1927 43.1978 12.3933 43.1978 11.396C43.1978 10.3987 42.9118 9.60667 42.3398 9.02C41.7678 8.41867 41.0492 8.118 40.1838 8.118C39.3038 8.118 38.5778 8.41867 38.0058 9.02C37.4338 9.60667 37.1478 10.3987 37.1478 11.396C37.1478 12.3933 37.4338 13.1927 38.0058 13.794C38.5778 14.3807 39.3038 14.674 40.1838 14.674Z" fill="white"/>
<path d="M54.5143 5.302C56.3476 5.302 57.7556 5.742 58.7383 6.622C59.7209 7.48733 60.2123 8.8 60.2123 10.56V17.314H57.0003V15.84C56.3549 16.94 55.1523 17.49 53.3923 17.49C52.4829 17.49 51.6909 17.336 51.0163 17.028C50.3563 16.72 49.8503 16.2947 49.4983 15.752C49.1463 15.2093 48.9703 14.5933 48.9703 13.904C48.9703 12.804 49.3809 11.9387 50.2023 11.308C51.0383 10.6773 52.3216 10.362 54.0523 10.362H56.7803C56.7803 9.614 56.5529 9.042 56.0983 8.646C55.6436 8.23533 54.9616 8.03 54.0523 8.03C53.4216 8.03 52.7983 8.13267 52.1823 8.338C51.5809 8.52867 51.0676 8.79267 50.6423 9.13L49.4103 6.732C50.0556 6.27733 50.8256 5.92533 51.7203 5.676C52.6296 5.42667 53.5609 5.302 54.5143 5.302ZM54.2503 15.18C54.8369 15.18 55.3576 15.048 55.8123 14.784C56.2669 14.5053 56.5896 14.102 56.7803 13.574V12.364H54.4263C53.0183 12.364 52.3143 12.826 52.3143 13.75C52.3143 14.19 52.4829 14.542 52.8203 14.806C53.1723 15.0553 53.6489 15.18 54.2503 15.18Z" fill="white"/>
<path d="M70.5124 5.302C71.979 5.302 73.1597 5.742 74.0544 6.622C74.9637 7.502 75.4184 8.80733 75.4184 10.538V17.314H71.9864V11.066C71.9864 10.1273 71.7811 9.43067 71.3704 8.976C70.9597 8.50667 70.3657 8.272 69.5884 8.272C68.7231 8.272 68.0337 8.54333 67.5204 9.086C67.0071 9.614 66.7504 10.406 66.7504 11.462V17.314H63.3184V0.99H66.7504V6.71C67.205 6.25533 67.755 5.91067 68.4004 5.676C69.0457 5.42667 69.7497 5.302 70.5124 5.302Z" fill="white"/>
<path d="M84.2871 5.478H87.7191V17.314H84.2871V5.478ZM86.0031 3.828C85.3725 3.828 84.8591 3.64467 84.4631 3.278C84.0671 2.91133 83.8691 2.45667 83.8691 1.914C83.8691 1.37133 84.0671 0.916667 84.4631 0.550001C84.8591 0.183334 85.3725 0 86.0031 0C86.6338 0 87.1471 0.176 87.5431 0.528001C87.9391 0.880001 88.1371 1.32 88.1371 1.848C88.1371 2.42 87.9391 2.89667 87.5431 3.278C87.1471 3.64467 86.6338 3.828 86.0031 3.828Z" fill="white"/>
<path d="M96.5363 17.49C95.2897 17.49 94.1677 17.2333 93.1703 16.72C92.1877 16.192 91.4177 15.466 90.8603 14.542C90.303 13.618 90.0243 12.5693 90.0243 11.396C90.0243 10.2227 90.303 9.174 90.8603 8.25C91.4177 7.326 92.1877 6.60733 93.1703 6.094C94.1677 5.566 95.2897 5.302 96.5363 5.302C97.783 5.302 98.8977 5.566 99.8803 6.094C100.863 6.60733 101.633 7.326 102.19 8.25C102.748 9.174 103.026 10.2227 103.026 11.396C103.026 12.5693 102.748 13.618 102.19 14.542C101.633 15.466 100.863 16.192 99.8803 16.72C98.8977 17.2333 97.783 17.49 96.5363 17.49ZM96.5363 14.674C97.4163 14.674 98.135 14.3807 98.6923 13.794C99.2643 13.1927 99.5503 12.3933 99.5503 11.396C99.5503 10.3987 99.2643 9.60667 98.6923 9.02C98.135 8.41867 97.4163 8.118 96.5363 8.118C95.6563 8.118 94.9303 8.41867 94.3583 9.02C93.7863 9.60667 93.5003 10.3987 93.5003 11.396C93.5003 12.3933 93.7863 13.1927 94.3583 13.794C94.9303 14.3807 95.6563 14.674 96.5363 14.674Z" fill="white"/>
<path d="M79.8273 17.49C79.226 17.49 78.72 17.2847 78.3093 16.874C77.8987 16.4633 77.6933 15.95 77.6933 15.334C77.6933 14.7033 77.8987 14.1973 78.3093 13.816C78.72 13.42 79.226 13.222 79.8273 13.222C80.4287 13.222 80.9347 13.42 81.3453 13.816C81.756 14.1973 81.9613 14.7033 81.9613 15.334C81.9613 15.95 81.756 16.4633 81.3453 16.874C80.9347 17.2847 80.4287 17.49 79.8273 17.49Z" fill="#FF0000"/>
</svg>
