<svg width="104" height="19" viewBox="0 0 104 19" fill="none" xmlns="http://www.w3.org/2000/svg">
<path d="M4.39 5.46V9.53001H11.518V12.39H4.39V18H0.826004V2.6H12.464V5.46H4.39Z" fill="black"/>
<path d="M19.0865 5.98801C20.9199 5.98801 22.3279 6.42801 23.3105 7.30801C24.2932 8.17334 24.7845 9.486 24.7845 11.246V18H21.5725V16.526C20.9272 17.626 19.7245 18.176 17.9645 18.176C17.0552 18.176 16.2632 18.022 15.5885 17.714C14.9285 17.406 14.4225 16.9807 14.0705 16.438C13.7185 15.8953 13.5425 15.2793 13.5425 14.59C13.5425 13.49 13.9532 12.6247 14.7745 11.994C15.6105 11.3633 16.8939 11.048 18.6245 11.048H21.3525C21.3525 10.3 21.1252 9.72801 20.6705 9.33201C20.2159 8.92134 19.5339 8.71601 18.6245 8.71601C17.9939 8.71601 17.3705 8.81867 16.7545 9.024C16.1532 9.21467 15.6399 9.47867 15.2145 9.81601L13.9825 7.418C14.6279 6.96334 15.3979 6.61134 16.2925 6.36201C17.2019 6.11267 18.1332 5.98801 19.0865 5.98801ZM18.8225 15.866C19.4092 15.866 19.9299 15.734 20.3845 15.47C20.8392 15.1913 21.1619 14.788 21.3525 14.26V13.05H18.9985C17.5905 13.05 16.8865 13.512 16.8865 14.436C16.8865 14.876 17.0552 15.228 17.3925 15.492C17.7445 15.7413 18.2212 15.866 18.8225 15.866Z" fill="black"/>
<path d="M27.8906 6.164H31.3226V18H27.8906V6.164ZM29.6066 4.514C28.976 4.514 28.4626 4.33067 28.0666 3.96401C27.6706 3.59734 27.4726 3.14267 27.4726 2.6C27.4726 2.05734 27.6706 1.60267 28.0666 1.23601C28.4626 0.869338 28.976 0.686005 29.6066 0.686005C30.2373 0.686005 30.7506 0.862005 31.1466 1.21401C31.5426 1.56601 31.7406 2.00601 31.7406 2.53401C31.7406 3.10601 31.5426 3.58267 31.1466 3.96401C30.7506 4.33067 30.2373 4.514 29.6066 4.514Z" fill="black"/>
<path d="M46.5638 1.67601V18H43.2858V16.636C42.4352 17.6627 41.2032 18.176 39.5898 18.176C38.4752 18.176 37.4632 17.9267 36.5538 17.428C35.6592 16.9293 34.9552 16.218 34.4418 15.294C33.9285 14.37 33.6718 13.2993 33.6718 12.082C33.6718 10.8647 33.9285 9.79401 34.4418 8.87001C34.9552 7.94601 35.6592 7.23467 36.5538 6.736C37.4632 6.23734 38.4752 5.98801 39.5898 5.98801C41.1005 5.98801 42.2812 6.46467 43.1318 7.418V1.67601H46.5638ZM40.1838 15.36C41.0492 15.36 41.7678 15.0667 42.3398 14.48C42.9118 13.8787 43.1978 13.0793 43.1978 12.082C43.1978 11.0847 42.9118 10.2927 42.3398 9.70601C41.7678 9.10467 41.0492 8.80401 40.1838 8.80401C39.3038 8.80401 38.5778 9.10467 38.0058 9.70601C37.4338 10.2927 37.1478 11.0847 37.1478 12.082C37.1478 13.0793 37.4338 13.8787 38.0058 14.48C38.5778 15.0667 39.3038 15.36 40.1838 15.36Z" fill="black"/>
<path d="M54.5143 5.98801C56.3476 5.98801 57.7556 6.42801 58.7383 7.30801C59.7209 8.17334 60.2123 9.486 60.2123 11.246V18H57.0003V16.526C56.3549 17.626 55.1523 18.176 53.3923 18.176C52.4829 18.176 51.6909 18.022 51.0163 17.714C50.3563 17.406 49.8503 16.9807 49.4983 16.438C49.1463 15.8953 48.9703 15.2793 48.9703 14.59C48.9703 13.49 49.3809 12.6247 50.2023 11.994C51.0383 11.3633 52.3216 11.048 54.0523 11.048H56.7803C56.7803 10.3 56.5529 9.72801 56.0983 9.33201C55.6436 8.92134 54.9616 8.71601 54.0523 8.71601C53.4216 8.71601 52.7983 8.81867 52.1823 9.024C51.5809 9.21467 51.0676 9.47867 50.6423 9.81601L49.4103 7.418C50.0556 6.96334 50.8256 6.61134 51.7203 6.36201C52.6296 6.11267 53.5609 5.98801 54.5143 5.98801ZM54.2503 15.866C54.8369 15.866 55.3576 15.734 55.8123 15.47C56.2669 15.1913 56.5896 14.788 56.7803 14.26V13.05H54.4263C53.0183 13.05 52.3143 13.512 52.3143 14.436C52.3143 14.876 52.4829 15.228 52.8203 15.492C53.1723 15.7413 53.6489 15.866 54.2503 15.866Z" fill="black"/>
<path d="M70.5124 5.98801C71.979 5.98801 73.1597 6.42801 74.0544 7.30801C74.9637 8.18801 75.4184 9.49334 75.4184 11.224V18H71.9864V11.752C71.9864 10.8133 71.7811 10.1167 71.3704 9.66201C70.9597 9.19267 70.3657 8.95801 69.5884 8.95801C68.7231 8.95801 68.0337 9.22934 67.5204 9.77201C67.0071 10.3 66.7504 11.092 66.7504 12.148V18H63.3184V1.67601H66.7504V7.39601C67.205 6.94134 67.755 6.59667 68.4004 6.36201C69.0457 6.11267 69.7497 5.98801 70.5124 5.98801Z" fill="black"/>
<path d="M84.2871 6.164H87.7191V18H84.2871V6.164ZM86.0031 4.514C85.3725 4.514 84.8591 4.33067 84.4631 3.96401C84.0671 3.59734 83.8691 3.14267 83.8691 2.6C83.8691 2.05734 84.0671 1.60267 84.4631 1.23601C84.8591 0.869338 85.3725 0.686005 86.0031 0.686005C86.6338 0.686005 87.1471 0.862005 87.5431 1.21401C87.9391 1.56601 88.1371 2.00601 88.1371 2.53401C88.1371 3.10601 87.9391 3.58267 87.5431 3.96401C87.1471 4.33067 86.6338 4.514 86.0031 4.514Z" fill="black"/>
<path d="M96.5363 18.176C95.2897 18.176 94.1677 17.9193 93.1703 17.406C92.1877 16.878 91.4177 16.152 90.8603 15.228C90.303 14.304 90.0243 13.2553 90.0243 12.082C90.0243 10.9087 90.303 9.86 90.8603 8.936C91.4177 8.012 92.1877 7.29334 93.1703 6.78C94.1677 6.25201 95.2897 5.98801 96.5363 5.98801C97.783 5.98801 98.8977 6.25201 99.8803 6.78C100.863 7.29334 101.633 8.012 102.19 8.936C102.748 9.86 103.026 10.9087 103.026 12.082C103.026 13.2553 102.748 14.304 102.19 15.228C101.633 16.152 100.863 16.878 99.8803 17.406C98.8977 17.9193 97.783 18.176 96.5363 18.176ZM96.5363 15.36C97.4163 15.36 98.135 15.0667 98.6923 14.48C99.2643 13.8787 99.5503 13.0793 99.5503 12.082C99.5503 11.0847 99.2643 10.2927 98.6923 9.70601C98.135 9.10467 97.4163 8.80401 96.5363 8.80401C95.6563 8.80401 94.9303 9.10467 94.3583 9.70601C93.7863 10.2927 93.5003 11.0847 93.5003 12.082C93.5003 13.0793 93.7863 13.8787 94.3583 14.48C94.9303 15.0667 95.6563 15.36 96.5363 15.36Z" fill="black"/>
<path d="M79.8273 18.176C79.226 18.176 78.72 17.9707 78.3093 17.56C77.8987 17.1493 77.6933 16.636 77.6933 16.02C77.6933 15.3893 77.8987 14.8833 78.3093 14.502C78.72 14.106 79.226 13.908 79.8273 13.908C80.4287 13.908 80.9347 14.106 81.3453 14.502C81.756 14.8833 81.9613 15.3893 81.9613 16.02C81.9613 16.636 81.756 17.1493 81.3453 17.56C80.9347 17.9707 80.4287 18.176 79.8273 18.176Z" fill="#FF0000"/>
</svg>
